<?xml version="1.0" encoding="utf-8"?>
<!-- Svg Vector Icons : http://www.onlinewebfonts.com/icon -->
<!DOCTYPE svg PUBLIC "-//W3C//DTD SVG 1.1//EN" "http://www.w3.org/Graphics/SVG/1.1/DTD/svg11.dtd">
<svg version="1.1" xmlns="http://www.w3.org/2000/svg" xmlns:xlink="http://www.w3.org/1999/xlink" x="0px" y="0px" viewBox="0 0 1000 1000" enable-background="new 0 0 1000 1000" xml:space="preserve">
<metadata> Svg Vector Icons : http://www.onlinewebfonts.com/icon </metadata>
<g><g transform="translate(0.000000,476.000000) scale(0.100000,-0.100000)"><path d="M155.5,4260l-55.5-55.5V429.9v-3772.6l47.9-45.9l45.9-47.9h2576.3h2574.4v1091v1091h352.2H6047l34.5,124.4c130.2,480.4,530.2,924.5,1001.1,1108.2c329.2,130.2,715.9,151.2,1081.4,59.3l51.7-13.4v116.8v116.8h669.9h669.9v-756.1v-756.1h172.3H9900V1475v2729.5l-55.5,55.5l-55.5,55.5H5000H211L155.5,4260z M1784.4,3214.9v-756.1h-669.9H444.5v756.1v756.1h669.9h669.9V3214.9z M9555.5,3214.9v-756.1h-669.9h-669.9v756.1v756.1h669.9h669.9V3214.9z M1784.4,1358.2V602.2h-669.9H444.5v756.1v756.1h669.9h669.9V1358.2z M9555.5,1358.2V602.2h-669.9h-669.9v756.1v756.1h669.9h669.9V1358.2z M4393.2,1765.9c103.4-53.6,1883.4-1190.5,1917.9-1223.1c53.6-51.7,47.9-158.9-9.6-218.2c-26.8-24.9-468.9-313.9-983.8-639.3c-1014.4-643.1-1016.4-645-1112.1-547.4l-47.9,45.9v1246v1248l55.5,55.5C4272.7,1792.7,4326.2,1802.3,4393.2,1765.9z M1784.4-498.4v-756.1h-669.9H444.5v756.1v756.1h669.9h669.9V-498.4z M1784.4-2355v-756.1h-669.9H444.5v756.1v756.1h669.9h669.9V-2355z"/><path d="M7421.3-441c-331.1-84.2-629.7-325.4-771.4-624c-91.9-193.3-114.8-287.1-132.1-514.9l-11.5-172.3h-331.1h-333.1v-1521.7v-1521.7h1856.6h1856.6v1521.7v1521.7h-335h-335v149.3c0,310.1-112.9,589.5-329.2,817.3c-141.6,149.3-279.5,241.2-470.9,310.1C7920.8-414.2,7597.4-397,7421.3-441z M7832.8-758.7c419.2-67,708.2-411.5,708.2-842.2v-151.2h-842.2h-842.2v112.9c0,499.6,317.7,842.2,832.6,899.6C7700.7-739.6,7763.9-747.2,7832.8-758.7z M9230.1-3273.8v-1177.1H7708.4H6186.7v1177.1v1177.1h1521.7h1521.7V-3273.8z"/><path d="M7455.7-2481.4c-135.9-53.6-296.7-202.9-363.7-338.8c-45.9-93.8-53.6-132.1-53.6-281.4c0-157,5.7-185.7,63.2-300.5c70.8-145.5,174.2-245,325.4-315.8l99.5-45.9v-91.9c0-185.6,84.2-289,212.5-260.3c91.9,21,132.1,91.9,132.1,231.6v120.6l114.8,51.7c266.1,118.7,428.8,419.2,382.8,702.5c-34.5,218.2-155,390.5-348.4,491.9c-107.2,57.4-139.7,65.1-292.9,70.8C7587.8-2441.2,7536.1-2448.8,7455.7-2481.4z M7899.8-2839.3c157-109.1,185.7-335,63.2-474.7c-80.4-91.9-149.3-122.5-269.9-122.5c-174.2,0-298.6,112.9-315.8,285.2c-11.5,122.5,3.8,176.1,67,252.6C7562.9-2758.9,7750.5-2734,7899.8-2839.3z"/></g></g>
</svg>